<mxfile host="Electron" modified="2024-05-21T12:00:00.020Z" agent="Mozilla/5.0 (Windows NT 10.0; Win64; x64) AppleWebKit/537.36 (KHTML, like Gecko) draw.io/22.1.11 Chrome/114.0.5735.289 Electron/25.9.8 Safari/537.36" etag="Tc5au3YTWDMaLZpR4NOn" version="22.1.11" type="device">
  <diagram name="Page-1" id="-4CRI_s8Adh2Hmm_deZ9">
    <mxGraphModel dx="1687" dy="1067" grid="0" gridSize="10" guides="1" tooltips="1" connect="1" arrows="1" fold="1" page="1" pageScale="1" pageWidth="1100" pageHeight="850" math="0" shadow="0">
      <root>
        <mxCell id="0" />
        <mxCell id="1" parent="0" />
        <mxCell id="ahXjinsiZgF_IZb5yBNB-1" value="" style="rounded=0;whiteSpace=wrap;html=1;strokeColor=#6c8ebf;fillColor=#dae8fc;dashed=1;movable=0;resizable=0;rotatable=0;deletable=0;editable=0;locked=1;connectable=0;" vertex="1" parent="1">
          <mxGeometry x="18" y="14" width="529" height="816" as="geometry" />
        </mxCell>
        <mxCell id="ahXjinsiZgF_IZb5yBNB-3" value="" style="rounded=0;whiteSpace=wrap;html=1;strokeColor=#d6b656;fillColor=#fff2cc;dashed=1;movable=0;resizable=0;rotatable=0;deletable=0;editable=0;locked=1;connectable=0;" vertex="1" parent="1">
          <mxGeometry x="559" y="14" width="529" height="816" as="geometry" />
        </mxCell>
        <mxCell id="ahXjinsiZgF_IZb5yBNB-4" value="&lt;b&gt;&lt;font style=&quot;font-size: 22px;&quot;&gt;Client side&lt;/font&gt;&lt;/b&gt;" style="text;html=1;strokeColor=none;fillColor=none;align=center;verticalAlign=middle;whiteSpace=wrap;rounded=0;" vertex="1" parent="1">
          <mxGeometry x="165" y="54" width="202" height="30" as="geometry" />
        </mxCell>
        <mxCell id="ahXjinsiZgF_IZb5yBNB-5" value="&lt;b&gt;&lt;font style=&quot;font-size: 22px;&quot;&gt;Server side&lt;/font&gt;&lt;/b&gt;" style="text;html=1;strokeColor=none;fillColor=none;align=center;verticalAlign=middle;whiteSpace=wrap;rounded=0;" vertex="1" parent="1">
          <mxGeometry x="735" y="54" width="202" height="30" as="geometry" />
        </mxCell>
        <mxCell id="ahXjinsiZgF_IZb5yBNB-11" value="" style="rounded=1;whiteSpace=wrap;html=1;" vertex="1" parent="1">
          <mxGeometry x="678" y="612" width="327" height="209" as="geometry" />
        </mxCell>
        <mxCell id="ahXjinsiZgF_IZb5yBNB-8" value="" style="shape=cylinder3;whiteSpace=wrap;html=1;boundedLbl=1;backgroundOutline=1;size=15;" vertex="1" parent="1">
          <mxGeometry x="893" y="660" width="86" height="121" as="geometry" />
        </mxCell>
        <mxCell id="ahXjinsiZgF_IZb5yBNB-10" value="&lt;h1 style=&quot;&quot;&gt;&lt;span style=&quot;white-space: pre;&quot;&gt;&#x9;&lt;/span&gt;Databas&lt;/h1&gt;&lt;div style=&quot;&quot;&gt;&lt;ul&gt;&lt;li&gt;&lt;span style=&quot;background-color: initial;&quot;&gt;Oracle&lt;/span&gt;&lt;/li&gt;&lt;li&gt;&lt;span style=&quot;background-color: initial;&quot;&gt;MySQL&lt;/span&gt;&lt;/li&gt;&lt;li&gt;&lt;span style=&quot;background-color: initial;&quot;&gt;Microsoft SQL Server&lt;/span&gt;&lt;/li&gt;&lt;li&gt;&lt;span style=&quot;background-color: initial;&quot;&gt;PostgreSQL&lt;/span&gt;&lt;/li&gt;&lt;li&gt;&lt;span style=&quot;background-color: initial;&quot;&gt;MongoDB&lt;/span&gt;&lt;/li&gt;&lt;li&gt;&lt;span style=&quot;background-color: initial;&quot;&gt;Redis&lt;/span&gt;&lt;/li&gt;&lt;/ul&gt;&lt;/div&gt;" style="text;html=1;strokeColor=none;fillColor=none;spacing=5;spacingTop=-20;whiteSpace=wrap;overflow=hidden;rounded=0;" vertex="1" parent="1">
          <mxGeometry x="685" y="663" width="191" height="140" as="geometry" />
        </mxCell>
        <mxCell id="ahXjinsiZgF_IZb5yBNB-12" value="Express js" style="rounded=1;whiteSpace=wrap;html=1;align=center;" vertex="1" parent="1">
          <mxGeometry x="807" y="319" width="205" height="120" as="geometry" />
        </mxCell>
        <mxCell id="ahXjinsiZgF_IZb5yBNB-17" style="edgeStyle=orthogonalEdgeStyle;rounded=0;orthogonalLoop=1;jettySize=auto;html=1;entryX=0.5;entryY=0;entryDx=0;entryDy=0;" edge="1" parent="1" source="ahXjinsiZgF_IZb5yBNB-13" target="ahXjinsiZgF_IZb5yBNB-12">
          <mxGeometry relative="1" as="geometry">
            <Array as="points">
              <mxPoint x="909" y="209" />
            </Array>
          </mxGeometry>
        </mxCell>
        <mxCell id="ahXjinsiZgF_IZb5yBNB-13" value="&lt;div style=&quot;text-align: justify;&quot;&gt;&lt;span style=&quot;background-color: initial;&quot;&gt;&lt;b&gt;&lt;font style=&quot;font-size: 20px;&quot;&gt;Nexr.js Customer&amp;nbsp;&lt;/font&gt;&lt;/b&gt;&lt;/span&gt;&lt;/div&gt;" style="rounded=1;whiteSpace=wrap;html=1;align=center;" vertex="1" parent="1">
          <mxGeometry x="280" y="139" width="558" height="135" as="geometry" />
        </mxCell>
        <mxCell id="ahXjinsiZgF_IZb5yBNB-15" style="edgeStyle=orthogonalEdgeStyle;rounded=0;orthogonalLoop=1;jettySize=auto;html=1;entryX=0.711;entryY=-0.023;entryDx=0;entryDy=0;entryPerimeter=0;" edge="1" parent="1" source="ahXjinsiZgF_IZb5yBNB-12" target="ahXjinsiZgF_IZb5yBNB-11">
          <mxGeometry relative="1" as="geometry" />
        </mxCell>
        <mxCell id="ahXjinsiZgF_IZb5yBNB-20" value="Actor" style="shape=umlActor;verticalLabelPosition=bottom;verticalAlign=top;html=1;outlineConnect=0;" vertex="1" parent="1">
          <mxGeometry x="131" y="176.5" width="30" height="60" as="geometry" />
        </mxCell>
        <mxCell id="ahXjinsiZgF_IZb5yBNB-22" value="&lt;div style=&quot;text-align: justify;&quot;&gt;&lt;span style=&quot;background-color: initial;&quot;&gt;&lt;b&gt;&lt;font style=&quot;font-size: 20px;&quot;&gt;Nexr.js Customer&amp;nbsp;&lt;/font&gt;&lt;/b&gt;&lt;/span&gt;&lt;/div&gt;" style="rounded=1;whiteSpace=wrap;html=1;align=center;" vertex="1" parent="1">
          <mxGeometry x="169" y="341" width="558" height="135" as="geometry" />
        </mxCell>
      </root>
    </mxGraphModel>
  </diagram>
</mxfile>
